<svg width="25" height="25" viewBox="0 0 25 25" fill="none" xmlns="http://www.w3.org/2000/svg">
<path fill-rule="evenodd" clip-rule="evenodd" d="M7.5 2.5C7.5 1.94772 7.94772 1.5 8.5 1.5C9.05228 1.5 9.5 1.94772 9.5 2.5V4.5H15.5V2.5C15.5 1.94772 15.9477 1.5 16.5 1.5C17.0523 1.5 17.5 1.94772 17.5 2.5V4.5H21.5C22.0523 4.5 22.5 4.94772 22.5 5.5V21.5C22.5 22.0523 22.0523 22.5 21.5 22.5H3.5C2.94772 22.5 2.5 22.0523 2.5 21.5V5.5C2.5 4.94772 2.94772 4.5 3.5 4.5H7.5V2.5ZM15.5 6.5V8.5C15.5 9.05228 15.9477 9.5 16.5 9.5C17.0523 9.5 17.5 9.05228 17.5 8.5V6.5H20.5V11.5H4.5V6.5H7.5V8.5C7.5 9.05228 7.94772 9.5 8.5 9.5C9.05228 9.5 9.5 9.05228 9.5 8.5V6.5H15.5ZM4.5 13.5V20.5H20.5V13.5H4.5Z" fill="white"/>
</svg>
