<svg width="16" height="17" viewBox="0 0 16 17" fill="none" xmlns="http://www.w3.org/2000/svg">
<path fill-rule="evenodd" clip-rule="evenodd" d="M8 1.5C5.79086 1.5 4 3.29086 4 5.5C4 7.70914 5.79086 9.5 8 9.5C10.2091 9.5 12 7.70914 12 5.5C12 3.29086 10.2091 1.5 8 1.5ZM6 5.5C6 4.39543 6.89543 3.5 8 3.5C9.10457 3.5 10 4.39543 10 5.5C10 6.60457 9.10457 7.5 8 7.5C6.89543 7.5 6 6.60457 6 5.5Z" fill="#2C76C8"/>
<path d="M4.5 10.5C2.567 10.5 1 12.067 1 14V15.5H3V14C3 13.1716 3.67157 12.5 4.5 12.5H11.5C12.3284 12.5 13 13.1716 13 14V15.5H15V14C15 12.067 13.433 10.5 11.5 10.5H4.5Z" fill="#2C76C8"/>
</svg>
