<svg width="14" height="14" viewBox="0 0 14 14" fill="none" xmlns="http://www.w3.org/2000/svg">
<path fill-rule="evenodd" clip-rule="evenodd" d="M7 0C4.79086 0 3 1.79086 3 4C3 6.20914 4.79086 8 7 8C9.20914 8 11 6.20914 11 4C11 1.79086 9.20914 0 7 0ZM5 4C5 2.89543 5.89543 2 7 2C8.10457 2 9 2.89543 9 4C9 5.10457 8.10457 6 7 6C5.89543 6 5 5.10457 5 4Z" fill="#2C76C8"/>
<path d="M3.5 9C1.567 9 0 10.567 0 12.5V14H2V12.5C2 11.6716 2.67157 11 3.5 11H10.5C11.3284 11 12 11.6716 12 12.5V14H14V12.5C14 10.567 12.433 9 10.5 9H3.5Z" fill="#2C76C8"/>
</svg>
